<?xml version="1.0" standalone="no"?>
<!DOCTYPE svg PUBLIC "-//W3C//DTD SVG 20010904//EN"
 "http://www.w3.org/TR/2001/REC-SVG-20010904/DTD/svg10.dtd">
<svg version="1.0" xmlns="http://www.w3.org/2000/svg"
 width="800.000000pt" height="800.000000pt" viewBox="0 0 800.000000 800.000000"
 preserveAspectRatio="xMidYMid meet">
<metadata>
Created by potrace 1.14, written by Peter Selinger 2001-2017
</metadata>
<g transform="translate(0.000000,800.000000) scale(0.100000,-0.100000)"
fill="#000000" stroke="none">
<path d="M0 5655 l0 -2345 60 0 c33 0 60 4 60 10 0 6 27 10 60 10 47 0 60 3
60 15 0 8 7 15 16 15 20 0 44 24 44 44 0 12 10 16 40 16 33 0 40 3 40 20 0 17
7 20 40 20 36 0 40 3 40 25 0 14 5 25 10 25 6 0 10 20 10 45 l0 45 45 0 c38 0
45 -3 45 -20 0 -19 7 -20 90 -20 89 0 90 0 90 25 0 23 4 25 45 25 34 0 45 -4
45 -15 0 -13 24 -15 178 -13 175 3 177 3 180 26 3 22 5 22 177 22 141 0 176
-3 182 -14 6 -11 31 -15 93 -17 47 -1 86 1 88 5 6 16 1 26 -13 26 -21 0 -21
83 0 104 8 8 15 20 15 27 0 18 260 6 271 -13 12 -18 11 -28 -1 -28 -6 0 -20
-8 -31 -19 -16 -15 -20 -29 -17 -67 3 -42 6 -49 29 -55 17 -4 40 0 65 12 33
15 40 15 42 3 3 -11 23 -14 93 -14 54 0 89 4 89 10 0 14 530 13 546 -1 20 -16
46 1 41 27 -3 16 0 24 9 24 8 0 14 -7 14 -15 0 -42 90 -91 203 -110 37 -6 52
-25 20 -25 -17 -1 -17 -1 0 -14 28 -22 79 -173 78 -233 -2 -78 -50 -283 -73
-310 -5 -7 -44 -31 -86 -55 -43 -23 -86 -48 -97 -55 -11 -7 -29 -16 -41 -22
-12 -5 -45 -25 -75 -44 -75 -48 -491 -284 -564 -320 -33 -16 -71 -37 -85 -47
-14 -9 -63 -37 -110 -62 -47 -26 -112 -62 -145 -81 -161 -92 -336 -193 -385
-223 -30 -18 -71 -41 -90 -50 -19 -10 -52 -28 -72 -41 -45 -28 -125 -72 -228
-126 -41 -22 -86 -47 -100 -57 -14 -10 -65 -40 -115 -67 -89 -50 -160 -71
-380 -117 -44 -10 -149 -33 -233 -53 l-154 -36 -35 19 c-104 56 -118 62 -122
51 -2 -6 0 -12 6 -14 44 -15 151 -92 217 -158 91 -90 158 -191 136 -205 -18
-11 -39 4 -77 56 -18 24 -65 69 -104 101 -122 100 -137 108 -58 32 79 -76 162
-187 157 -210 -5 -21 -67 -50 -122 -56 -32 -3 -68 -16 -95 -34 -25 -16 -48
-29 -53 -29 -4 0 -8 -172 -8 -381 l0 -381 28 6 c15 3 77 19 137 36 117 32 256
63 262 57 3 -4 -266 -330 -277 -335 -4 -1 -13 10 -19 26 -17 41 -60 79 -98 87
-26 5 -33 3 -33 -9 0 -9 8 -16 18 -16 24 0 79 -58 87 -92 6 -24 12 -28 41 -28
26 0 38 6 51 27 74 116 346 407 578 619 256 234 334 297 533 431 46 31 100 77
120 101 20 25 59 63 85 84 64 50 119 52 230 6 77 -32 89 -41 63 -51 -36 -14
-203 -132 -325 -230 -380 -304 -603 -588 -702 -897 l-28 -85 38 -3 c21 -2 57
6 85 17 64 28 343 57 392 41 19 -6 42 -10 51 -7 49 11 -187 76 -279 77 -90 0
-140 -17 -187 -65 -24 -25 -46 -44 -47 -42 -4 4 46 144 75 212 34 77 98 181
170 275 138 180 471 483 676 615 70 45 232 129 290 150 28 10 224 33 386 45
187 13 536 67 780 121 309 67 685 90 841 51 27 -7 26 -7 -48 -87 -108 -116
-255 -305 -372 -480 -37 -55 -69 -102 -72 -105 -23 -23 -139 -208 -188 -301
-47 -88 -78 -133 -134 -190 -88 -91 -129 -146 -163 -222 -15 -31 -30 -59 -34
-61 -9 -6 -167 24 -318 61 -62 15 -115 24 -119 21 -13 -13 7 -26 83 -53 43
-15 99 -38 125 -51 46 -23 54 -24 295 -24 l248 0 18 114 c30 193 106 464 171
606 31 70 137 224 296 432 91 119 176 215 317 356 106 106 193 195 193 197 0
3 -8 5 -17 5 -10 0 -54 -34 -98 -75 -107 -101 -123 -109 -204 -102 -59 5 -69
8 -93 38 -25 29 -28 41 -28 104 0 132 38 259 180 605 40 96 87 220 105 275 19
55 52 141 75 190 64 138 71 161 54 175 -11 10 -16 7 -24 -16 -34 -92 -159
-338 -210 -414 -21 -30 -53 -86 -73 -125 -20 -38 -54 -99 -76 -135 -22 -36
-61 -103 -88 -150 -75 -129 -106 -179 -236 -376 l-119 -181 -91 -12 c-51 -6
-186 -30 -300 -52 -115 -22 -213 -39 -218 -37 -5 2 77 93 183 203 264 273 426
460 609 701 89 117 101 132 175 234 27 36 71 97 100 135 28 39 59 84 70 100
10 17 30 46 46 66 30 39 165 255 207 331 14 26 64 116 111 200 46 84 105 194
131 243 26 50 70 131 98 180 48 85 131 250 223 445 75 158 91 185 132 228 58
61 134 112 268 176 93 45 125 56 166 56 l50 0 91 -95 c50 -53 103 -119 117
-148 15 -29 46 -84 70 -124 132 -218 228 -452 278 -675 7 -29 36 -39 36 -13 0
8 3 15 8 15 9 0 245 -246 383 -400 91 -100 219 -269 354 -466 11 -16 61 -84
112 -151 50 -67 109 -148 129 -180 34 -52 114 -192 114 -198 0 -2 -39 12 -88
30 -192 73 -232 86 -248 83 -35 -6 -24 -27 23 -41 135 -42 248 -86 338 -130
270 -132 451 -268 713 -535 123 -126 142 -142 142 -119 0 31 -69 108 -215 241
-202 182 -363 304 -509 387 -90 52 -96 57 -125 117 -32 65 -172 285 -198 310
-8 8 -25 31 -38 51 -13 20 -53 74 -89 121 -89 116 -166 220 -235 315 -63 88
-219 260 -439 486 -160 164 -180 199 -132 224 25 13 32 12 70 -6 41 -20 45
-20 106 -5 70 18 134 21 134 7 0 -5 -6 -12 -12 -14 -7 -3 -2 -6 10 -6 24 -1
84 27 90 41 2 5 28 15 59 24 30 9 71 27 91 41 26 17 47 23 74 21 21 -1 43 3
50 10 7 7 27 12 46 12 31 0 34 2 29 23 -6 22 -6 22 9 2 16 -21 53 -22 66 -1 5
7 8 7 8 0 0 -9 23 -10 141 -5 8 1 23 18 33 38 14 29 20 34 27 22 7 -12 9 -12
9 1 0 8 11 27 25 42 29 32 24 54 -14 61 -16 4 -46 18 -66 32 -21 14 -41 25
-45 25 -11 0 -68 84 -72 105 -2 13 6 24 25 33 15 7 27 17 27 21 0 5 34 25 75
46 41 20 75 40 75 45 0 5 14 11 30 15 17 4 30 10 30 14 0 4 14 15 31 25 18 11
29 14 25 8 -10 -16 13 -25 29 -12 8 7 15 21 15 31 0 11 3 19 8 19 13 -1 42
-27 42 -39 0 -6 12 -14 28 -17 30 -6 62 -57 62 -99 0 -39 18 -29 23 13 l4 37
1 -38 c1 -23 -4 -45 -13 -53 -8 -9 -15 -26 -15 -39 0 -20 -8 -26 -41 -35 -22
-6 -50 -20 -62 -31 -12 -11 -29 -26 -38 -34 -9 -8 -23 -15 -33 -15 -19 0 -39
-18 -43 -37 -2 -8 4 -10 14 -6 11 4 14 3 9 -6 -6 -8 12 -11 67 -10 53 1 85 -4
112 -17 40 -19 65 -20 176 -9 49 5 74 13 94 31 16 13 34 24 42 24 14 0 15 5
15 83 1 35 5 47 16 47 11 0 14 9 10 44 -8 66 2 76 76 76 72 0 100 -17 73 -45
-9 -8 -20 -15 -25 -15 -5 0 -16 -7 -23 -16 -7 -9 -25 -21 -39 -26 -23 -9 -23
-11 -6 -17 13 -5 16 -10 9 -14 -8 -5 -9 -17 -3 -36 4 -16 6 -31 4 -34 -3 -2 8
-13 23 -23 19 -13 47 -18 88 -19 106 0 95 -84 95 730 0 393 -3 715 -6 715 -5
0 -87 -48 -274 -160 -8 -5 -100 -57 -205 -116 -104 -59 -217 -124 -250 -144
-72 -44 -279 -165 -343 -201 -26 -14 -92 -52 -147 -84 -55 -32 -122 -71 -150
-87 -73 -41 -191 -110 -229 -133 -19 -11 -60 -35 -92 -54 -94 -54 -164 -95
-182 -106 -71 -43 -144 -85 -147 -85 -3 0 -50 -27 -104 -59 -82 -49 -102 -57
-111 -46 -17 20 -9 28 83 81 45 26 109 64 142 84 33 21 96 57 140 81 44 23
110 62 148 86 37 24 71 43 75 43 4 0 34 17 67 37 33 20 87 52 120 71 33 19 76
44 95 55 19 11 55 31 80 45 25 13 50 27 55 32 6 4 37 22 70 40 97 52 358 202
385 220 14 10 61 38 105 62 44 25 121 69 170 98 50 29 117 69 150 88 33 19 74
42 90 52 30 17 131 76 191 110 82 47 74 12 74 316 l0 270 -25 22 c-19 16 -25
32 -25 60 0 28 7 45 25 62 l25 23 0 224 0 223 -45 0 c-39 0 -47 -4 -68 -35
-13 -19 -27 -32 -30 -29 -4 4 -10 -2 -14 -12 -22 -59 -80 -75 -328 -91 -264
-17 -431 -4 -532 43 -51 23 -70 26 -154 25 -53 -1 -111 -6 -130 -12 -19 -6
-76 -21 -127 -33 -51 -13 -95 -26 -98 -29 -12 -12 10 -44 62 -89 l54 -48 96 0
c96 0 152 -15 156 -43 0 -6 2 -24 3 -40 2 -33 1 -31 56 -60 39 -21 44 -28 44
-58 0 -27 5 -36 28 -47 21 -10 32 -11 40 -3 6 6 20 11 31 11 11 0 39 9 63 21
31 15 43 27 43 43 0 12 15 36 33 54 29 28 40 32 88 32 31 0 90 -9 133 -20 42
-10 119 -24 171 -29 123 -13 136 -20 124 -66 -6 -20 -9 -52 -7 -73 3 -35 7
-39 68 -69 36 -18 74 -33 86 -33 11 0 31 -11 44 -25 l23 -25 -25 -23 c-43 -40
-218 -117 -309 -137 -26 -5 -59 -15 -75 -21 -16 -6 -74 -15 -129 -19 -137 -11
-245 -40 -245 -65 0 -20 -64 -72 -115 -95 -27 -12 -86 -29 -130 -37 -44 -7
-90 -21 -103 -29 -44 -29 -149 -44 -231 -33 -136 18 -205 12 -436 -36 -63 -14
-110 -16 -224 -11 -79 3 -147 8 -150 11 -8 8 24 95 71 195 149 315 163 366
180 624 24 374 -39 712 -183 982 -128 240 -283 428 -464 562 l-69 52 -2638 0
-2638 0 0 -2345z m2900 2213 c0 -7 -14 -33 -30 -58 -39 -59 -44 -68 -66 -112
-10 -21 -22 -38 -26 -38 -12 0 -10 7 13 51 11 22 19 47 17 54 -4 20 -74 -32
-156 -114 -35 -35 -65 -61 -68 -59 -8 9 59 123 94 160 35 37 69 43 36 7 -9
-11 -15 -21 -12 -24 7 -7 82 56 128 106 34 38 70 51 70 27z m104 -66 c-8 -18
-20 -32 -26 -32 -6 0 -4 9 4 23 8 12 18 28 22 35 16 26 16 5 0 -26z m-484 -14
c0 -16 -46 -64 -184 -193 -105 -98 -134 -121 -141 -113 -4 4 35 57 98 132 44
53 196 186 213 186 8 0 14 -6 14 -12z m580 -17 c0 -6 -4 -13 -10 -16 -5 -3
-10 1 -10 9 0 9 5 16 10 16 6 0 10 -4 10 -9z m-480 -6 c0 -19 -46 -90 -76
-117 -20 -18 -49 -46 -65 -62 -23 -24 -29 -27 -34 -14 -13 33 117 198 156 198
10 0 19 -2 19 -5z m2246 -147 c15 -24 37 -51 47 -62 30 -30 11 -30 -32 0 -22
16 -42 38 -44 49 -2 11 -8 28 -12 38 -14 33 12 17 41 -25z m401 -20 c32 -36
112 -198 97 -198 -9 0 -53 54 -54 66 0 6 -16 29 -35 51 -54 63 -61 139 -8 81z
m-1304 -41 c15 -29 46 -78 70 -110 24 -31 64 -99 90 -150 26 -50 56 -103 67
-117 17 -22 22 -23 39 -12 12 6 23 12 25 12 5 0 86 -107 171 -226 17 -23 62
-77 101 -120 39 -43 85 -95 103 -116 40 -45 108 -168 121 -219 6 -20 38 -71
73 -113 56 -67 66 -87 96 -186 33 -105 34 -112 19 -138 -9 -15 -19 -58 -23
-97 -5 -48 -16 -87 -36 -124 -16 -30 -29 -60 -29 -67 0 -28 151 -101 182 -89
9 4 25 27 35 53 29 70 101 160 150 189 37 21 53 25 101 21 48 -3 66 -10 101
-39 89 -71 163 -292 165 -494 1 -117 -17 -171 -93 -270 -80 -105 -147 -160
-223 -183 -91 -28 -194 -36 -308 -23 -80 9 -98 8 -117 -4 -24 -16 -95 -149
-107 -200 -13 -54 -109 -299 -134 -340 -62 -101 -144 -176 -267 -244 -33 -19
-80 -50 -105 -71 -25 -20 -75 -53 -112 -73 -37 -21 -70 -42 -73 -47 -6 -9
-106 -70 -190 -116 -22 -12 -66 -35 -97 -52 -32 -17 -70 -40 -85 -50 -16 -11
-59 -37 -98 -59 -38 -22 -113 -65 -165 -96 l-95 -56 -110 15 c-60 7 -136 17
-168 20 -76 9 -95 30 -135 148 -18 52 -52 135 -76 183 -24 48 -77 160 -119
248 -41 88 -100 214 -132 280 -69 145 -116 258 -143 345 -11 36 -28 88 -37
115 -44 136 -47 159 -50 515 -4 414 -1 399 -124 678 -23 51 -41 99 -41 106 0
35 231 98 405 111 44 3 106 8 138 11 70 6 77 -11 8 -20 -99 -13 -272 -99 -248
-123 4 -3 31 2 62 12 39 12 93 17 185 18 121 2 131 1 152 -20 12 -12 20 -24
17 -27 -2 -2 -33 2 -69 11 -140 32 -327 3 -381 -59 -50 -58 -85 -167 -59 -183
16 -10 30 12 30 47 0 30 77 104 120 114 14 4 40 15 58 26 26 16 35 18 47 8 17
-14 20 -40 6 -40 -6 0 -13 5 -16 10 -9 14 -42 13 -47 -2 -4 -11 13 -84 27
-120 5 -12 1 -17 -16 -20 -12 -2 -24 -9 -27 -15 -5 -18 63 -17 161 2 43 8 88
15 100 15 20 -1 20 -3 -8 -25 -16 -13 -40 -33 -52 -44 -12 -10 -30 -21 -40
-23 -20 -4 -25 -29 -6 -35 6 -2 21 5 32 16 12 12 29 21 39 21 9 0 35 12 57 25
44 27 75 34 57 13 -10 -13 -64 -113 -158 -295 -29 -57 -60 -113 -68 -125 -22
-30 -21 -139 0 -181 23 -46 83 -105 129 -129 22 -11 42 -22 44 -24 1 -1 -11
-20 -28 -41 -17 -21 -38 -60 -47 -85 -8 -26 -32 -66 -52 -88 -50 -56 -101 -64
-165 -27 -37 22 -47 24 -62 13 -17 -12 -16 -16 3 -77 12 -35 24 -91 27 -124 6
-57 9 -63 66 -117 44 -43 72 -60 113 -72 110 -32 179 -16 263 64 73 70 92 80
147 80 38 0 68 -10 140 -46 130 -66 189 -84 292 -91 77 -5 102 -2 159 16 38
13 85 31 104 41 50 25 209 192 216 227 4 15 16 50 26 76 35 85 6 108 -82 65
-104 -51 -227 -13 -382 120 -122 104 -150 122 -205 136 -35 9 -48 17 -50 33
-2 15 -19 28 -55 43 -53 23 -119 31 -377 46 -115 6 -115 6 -139 -20 -14 -14
-28 -26 -32 -26 -16 0 -40 85 -34 118 7 37 67 158 213 424 41 75 51 111 33
122 -5 3 -11 29 -13 58 -3 29 -9 61 -13 71 -6 15 -4 16 18 8 18 -7 28 -6 36 3
8 10 3 24 -22 55 -17 24 -42 57 -55 74 -12 18 -71 78 -130 134 -121 116 -119
116 -243 84 -69 -18 -216 -81 -229 -99 -3 -5 -21 -18 -40 -29 -19 -12 -45 -33
-58 -47 -62 -72 -54 -1 26 234 45 131 82 256 82 277 0 11 30 51 68 90 61 65
241 230 268 246 10 6 5 -22 -36 -190 -4 -18 -5 -34 -2 -37 15 -15 30 -2 42 37
24 77 104 229 135 256 17 14 46 37 65 51 18 14 45 34 59 46 48 38 259 159 266
152 2 -2 -17 -45 -42 -96 -24 -51 -45 -105 -46 -120 -3 -38 25 -35 36 4 21 74
238 237 405 303 55 23 107 41 116 41 8 0 27 5 41 12 14 6 27 9 30 6 3 -3 -7
-28 -21 -57 -15 -28 -24 -54 -21 -57 14 -15 62 11 149 80 51 41 98 75 103 75
6 1 22 -23 38 -52z m1680 -55 c27 -50 46 -132 31 -132 -13 0 -33 35 -65 113
-43 104 -19 117 34 19z m-153 -1 l25 -24 -28 17 c-38 23 -50 12 -32 -31 18
-42 18 -43 6 -43 -5 0 -21 20 -35 45 -25 42 -26 45 -9 64 18 22 22 20 73 -28z
m-4074 -476 c27 -8 72 -15 99 -15 118 -1 224 -48 270 -120 22 -33 22 -41 15
-145 -9 -123 -5 -208 15 -275 7 -25 16 -57 19 -72 10 -43 24 -33 31 20 21 170
37 229 88 336 l52 109 6 -44 c4 -24 6 -151 4 -283 -2 -187 -6 -241 -17 -247
-19 -12 -74 0 -122 27 -50 29 -129 32 -215 8 -85 -24 -126 -12 -156 44 -27 51
-101 121 -130 123 -11 1 -56 1 -100 0 -72 -2 -85 1 -125 26 -25 16 -56 34 -70
41 -30 16 -122 127 -131 156 -6 22 12 68 38 98 11 12 12 21 4 37 -6 11 -11 49
-11 85 0 95 9 100 187 91 88 -4 147 -3 163 3 33 14 30 14 86 -3z m710 -615
c22 -65 23 -73 9 -99 -13 -27 -17 -28 -51 -21 -20 5 -42 6 -49 3 -11 -4 -11 5
-1 49 15 61 55 152 63 144 3 -3 16 -37 29 -76z m-895 -205 c120 -7 159 -14
159 -31 0 -8 7 -14 16 -14 8 0 13 -4 10 -8 -3 -5 9 -16 25 -26 26 -15 68 -18
347 -23 290 -4 319 -6 337 -23 11 -10 33 -22 48 -25 20 -5 35 -21 52 -56 62
-122 85 -219 85 -360 l0 -100 -47 8 c-84 13 -111 7 -208 -52 -68 -42 -184 -30
-305 29 -70 35 -102 63 -132 116 -13 24 -30 47 -38 51 -118 63 -198 91 -268
95 -61 3 -82 9 -109 30 -18 14 -33 31 -33 38 0 7 -30 42 -68 78 -72 71 -114
90 -215 102 -81 10 -111 45 -64 76 25 17 86 40 105 40 7 0 25 8 39 17 45 29
116 52 149 47 16 -2 68 -6 115 -9z m1661 -197 c-10 -22 -11 -21 -11 12 -1 26
2 31 11 22 8 -8 8 -17 0 -34z m-102 -28 c0 -9 -100 -23 -108 -15 -9 9 7 18 45
25 40 7 63 3 63 -10z m-768 -1195 c23 -30 -5 -49 -58 -39 -24 4 -34 12 -34 24
0 10 6 20 13 23 22 7 72 2 79 -8z m3928 -254 c0 -5 -14 -14 -31 -20 -43 -15
-46 -14 -23 8 20 20 54 28 54 12z m-105 -61 c-3 -5 -11 -10 -16 -10 -6 0 -7 5
-4 10 3 6 11 10 16 10 6 0 7 -4 4 -10z m-55 -30 c0 -5 -5 -10 -11 -10 -5 0 -7
5 -4 10 3 6 8 10 11 10 2 0 4 -4 4 -10z m998 -231 c-2 -6 -8 -10 -13 -10 -5 0
-11 4 -13 10 -2 6 4 11 13 11 9 0 15 -5 13 -11z m-4088 -140 c0 -6 -4 -7 -10
-4 -5 3 -10 11 -10 16 0 6 5 7 10 4 6 -3 10 -11 10 -16z m48 -104 c-3 -3 -9 2
-12 12 -6 14 -5 15 5 6 7 -7 10 -15 7 -18z m3602 -26 c11 -8 12 -12 2 -16 -6
-2 -9 -10 -5 -16 3 -7 -3 -4 -15 7 -31 27 -15 49 18 25z m-200 -53 c0 -2 -7
-7 -16 -10 -8 -3 -12 -2 -9 4 6 10 25 14 25 6z m-1725 -135 c-88 -297 -216
-593 -293 -676 -20 -22 -44 -52 -53 -65 -18 -28 -57 -74 -205 -241 -126 -142
-560 -586 -567 -579 -8 7 -78 352 -73 357 2 2 12 -9 22 -26 10 -17 24 -31 31
-31 23 0 14 37 -22 89 -30 44 -35 58 -35 108 1 77 26 130 86 179 83 67 96 78
133 109 20 17 68 55 106 85 154 119 262 206 310 249 124 111 408 383 485 463
81 85 85 88 88 62 2 -15 -4 -53 -13 -83z m-1597 34 c-10 -10 -47 36 -41 51 5
12 10 9 26 -16 11 -17 17 -33 15 -35z m-13 -35 c3 -5 -1 -10 -9 -10 -9 0 -16
5 -16 10 0 6 4 10 9 10 6 0 13 -4 16 -10z m-22 -27 c-13 -2 -33 -2 -45 0 -13
2 -3 4 22 4 25 0 35 -2 23 -4z m77 -44 c0 -11 -4 -17 -10 -14 -5 3 -10 15 -10
26 0 11 5 17 10 14 6 -3 10 -15 10 -26z m246 -815 c-3 -9 -6 -23 -6 -33 0 -11
-27 -31 -77 -58 -43 -23 -116 -65 -162 -92 -46 -28 -87 -51 -90 -51 -3 0 -33
-16 -66 -36 -92 -56 -227 -134 -233 -134 -2 0 -37 -20 -76 -45 -40 -25 -75
-45 -79 -45 -6 0 -255 -140 -347 -195 -30 -18 -91 -53 -135 -77 -44 -25 -127
-72 -185 -105 -58 -33 -150 -86 -205 -117 -55 -31 -107 -60 -115 -66 -8 -5
-59 -35 -114 -67 -54 -32 -105 -62 -115 -68 -118 -72 -131 -77 -161 -65 -48
20 -43 26 65 85 39 21 180 101 315 178 135 77 261 149 280 160 56 32 281 158
330 185 25 14 110 62 190 107 80 45 177 100 215 121 39 21 82 46 96 54 14 8
57 33 95 54 38 22 112 64 164 94 52 30 122 70 155 87 33 18 103 58 154 89 101
59 117 65 107 40z m63 -413 c-146 -188 -226 -326 -283 -490 -41 -119 -41 -121
-21 -121 8 0 30 31 50 71 23 45 63 99 113 151 87 91 201 190 212 183 12 -7 33
-173 27 -208 -5 -34 -87 -182 -87 -157 1 8 7 38 14 65 8 29 10 54 5 59 -15 16
-26 -4 -44 -74 -9 -36 -23 -76 -32 -90 -20 -32 -218 -229 -258 -256 -16 -11
-75 -36 -130 -54 -131 -43 -204 -80 -257 -131 l-43 -42 -120 -8 c-164 -11
-258 -25 -334 -48 -36 -11 -66 -19 -67 -18 -2 1 38 57 89 122 156 204 170 222
237 310 169 224 279 354 374 444 32 31 68 66 79 79 40 43 191 158 336 253
l146 97 7 -55 c7 -48 5 -60 -13 -82z m-2219 -877 c50 -33 107 -103 117 -141 9
-37 -22 -59 -94 -68 -59 -7 -159 -27 -223 -44 -19 -6 -84 -22 -145 -37 -60
-14 -131 -36 -157 -48 l-47 -23 -111 114 c-61 62 -109 117 -106 122 7 10 56
23 321 87 105 24 215 51 245 59 81 22 148 15 200 -21z m1078 -73 c-1 -6 -41
-62 -88 -125 -83 -113 -108 -133 -135 -107 -6 4 -31 16 -57 26 -27 10 -48 21
-48 24 0 4 19 17 43 28 23 12 94 53 157 91 116 71 134 80 128 63z"/>
<path d="M3409 6590 c-101 -9 -116 -16 -190 -84 -30 -28 -66 -59 -79 -70 -22
-17 -22 -19 -5 -28 18 -11 40 -9 340 32 77 10 190 22 250 25 197 12 500 -28
613 -80 59 -27 96 -32 90 -12 -7 19 -257 142 -360 176 -51 17 -122 35 -158 41
-73 11 -371 11 -501 0z"/>
<path d="M3410 6363 c-50 -48 -60 -88 -30 -126 28 -35 61 -35 82 1 9 15 31 41
48 57 31 29 34 30 148 33 86 3 151 -2 247 -18 193 -32 205 -34 205 -21 0 15
-42 31 -115 42 -33 6 -111 23 -174 40 -97 25 -132 29 -242 29 l-130 0 -39 -37z"/>
<path d="M3625 6281 c-65 -16 -165 -84 -165 -113 0 -15 4 -18 18 -13 51 21 53
19 27 -26 -30 -53 -31 -75 -5 -89 30 -16 42 -3 34 35 -8 45 18 89 73 120 37
23 53 25 152 25 90 0 111 -3 111 -14 0 -24 -19 -29 -46 -12 -19 13 -25 14 -29
4 -5 -13 6 -78 20 -125 6 -19 3 -22 -29 -25 -69 -6 -36 -22 51 -25 49 -2 135
-10 192 -19 66 -9 108 -11 114 -5 12 12 0 31 -20 31 -10 0 -13 6 -9 16 3 9 9
27 12 40 9 36 41 30 65 -11 32 -54 53 -47 47 15 -5 54 -30 90 -81 116 -42 22
-197 54 -342 70 -142 15 -146 15 -190 5z m390 -203 c28 -13 35 -42 8 -35 -10
3 -36 8 -58 12 -37 6 -38 8 -20 21 23 17 36 18 70 2z"/>
<path d="M3338 6092 c-68 -14 11 -115 135 -171 60 -27 182 -55 204 -47 26 10
5 22 -97 50 -106 30 -141 56 -170 122 -18 40 -38 54 -72 46z"/>
<path d="M3733 5858 c2 -7 14 -13 27 -13 13 0 25 6 28 13 2 8 -7 12 -28 12
-21 0 -30 -4 -27 -12z"/>
<path d="M3927 5833 c-13 -12 -7 -23 12 -23 26 0 35 16 15 24 -19 7 -19 7 -27
-1z"/>
<path d="M2663 5823 c-20 -7 -15 -23 7 -23 11 0 20 4 20 9 0 13 -12 19 -27 14z"/>
<path d="M5338 5771 c-59 -37 -197 -174 -231 -229 -15 -23 -28 -52 -29 -65 -2
-21 36 -129 55 -154 12 -16 60 -6 116 24 50 26 79 29 106 10 15 -12 17 -22 11
-57 -16 -102 -106 -200 -184 -200 -59 0 -92 12 -92 32 0 11 -5 28 -10 39 -8
14 -7 25 5 41 31 45 14 151 -30 188 -30 25 -39 -3 -16 -48 35 -69 29 -100 -34
-165 -55 -57 -75 -91 -75 -128 0 -24 21 -24 62 1 38 23 71 25 150 9 49 -10 60
-9 106 11 109 47 177 191 152 319 -20 108 -67 144 -177 139 -40 -2 -73 -2 -73
0 0 10 65 82 78 87 9 3 31 -7 54 -26 37 -29 44 -31 104 -27 l65 4 -2 -83 c-3
-89 4 -109 27 -79 36 50 5 316 -42 363 -30 30 -40 29 -96 -6z"/>
<path d="M4836 5699 c-11 -10 -18 -20 -15 -22 2 -1 30 -22 61 -45 53 -39 78
-42 65 -7 -3 7 1 16 9 19 23 9 16 21 -27 49 -48 32 -67 33 -93 6z"/>
<path d="M4847 5606 c12 -21 99 -96 112 -96 22 0 10 27 -32 68 -25 24 -52 42
-65 42 -17 0 -21 -4 -15 -14z"/>
<path d="M3008 4423 c-24 -29 -28 -51 -11 -64 27 -23 145 -47 263 -53 233 -14
277 28 95 89 -137 47 -318 61 -347 28z"/>
<path d="M3498 2838 c-59 -108 -86 -196 -56 -186 13 5 14 6 62 111 20 44 33
83 30 88 -9 15 -23 10 -36 -13z"/>
<path d="M6802 7977 c-12 -13 -22 -30 -22 -38 0 -19 -40 -42 -112 -64 -32 -10
-58 -21 -58 -24 0 -4 6 -15 13 -26 12 -15 24 -17 83 -13 54 5 85 14 143 44 72
38 79 39 182 41 114 2 179 16 244 53 22 13 51 29 65 37 21 11 -14 13 -246 13
-270 0 -271 0 -292 -23z"/>
<path d="M7970 4028 c-14 -6 -34 -12 -45 -13 -39 -6 -80 -21 -112 -40 -32 -20
-42 -35 -23 -35 5 0 7 -7 3 -16 -5 -13 -2 -15 18 -9 13 4 28 11 33 16 5 4 18
3 29 -2 11 -7 41 -8 73 -4 l54 6 0 55 c0 30 -1 54 -2 53 -2 0 -14 -5 -28 -11z"/>
<path d="M5165 2948 c-16 -6 -59 -27 -95 -46 -36 -19 -78 -42 -95 -50 -107
-55 -384 -409 -589 -754 -49 -83 -54 -98 -32 -98 17 0 39 30 90 123 47 88 169
261 251 357 98 115 302 298 440 395 31 22 64 45 72 51 9 6 13 16 9 22 -8 14
-11 14 -51 0z"/>
<path d="M5560 2418 c-182 -80 -425 -223 -482 -284 -67 -72 -86 -84 -183 -114
-106 -33 -126 -43 -109 -60 7 -7 42 0 104 21 125 40 267 61 420 62 121 0 128
-1 218 -37 51 -20 113 -39 137 -43 40 -5 45 -4 45 13 0 28 95 116 165 154 117
64 221 116 283 144 61 27 78 50 45 60 -10 3 -76 10 -148 15 -73 5 -150 16
-175 26 -56 20 -96 30 -181 44 -80 13 -106 13 -139 -1z m149 -39 c102 -16 194
-38 205 -49 6 -6 4 -15 -5 -26 -13 -15 -125 -94 -135 -94 -3 0 -42 -21 -87
-47 -165 -94 -166 -95 -278 -87 -54 4 -99 9 -99 12 0 16 72 127 117 182 58 69
135 119 187 120 16 0 58 -5 95 -11z"/>
<path d="M6082 2010 c2 -7 26 -21 54 -30 27 -8 81 -33 119 -54 104 -57 374
-258 481 -359 23 -21 64 -55 92 -75 236 -174 578 -544 752 -814 100 -156 110
-171 110 -180 0 -4 7 -8 15 -8 8 0 15 5 15 10 0 42 -178 311 -323 489 -75 93
-338 356 -447 448 -391 331 -560 458 -706 532 -86 43 -170 64 -162 41z"/>
<path d="M4956 1641 c-3 -4 6 -19 20 -32 36 -33 172 -216 196 -264 12 -22 31
-54 44 -70 33 -43 170 -334 264 -560 56 -134 120 -414 120 -525 0 -19 5 -70
12 -112 9 -65 15 -78 30 -78 22 0 22 3 3 154 -19 150 -35 241 -80 436 -19 85
-44 200 -55 255 -91 449 -128 545 -258 671 -87 84 -178 134 -246 134 -25 0
-47 -4 -50 -9z"/>
<path d="M7860 78 c0 -56 10 -78 35 -78 l24 0 -19 52 c-22 62 -40 74 -40 26z"/>
</g>
</svg>
